<svg width="25" height="25" viewBox="0 0 25 25" fill="none" xmlns="http://www.w3.org/2000/svg">
<path d="M7.81217 6.25033V5.72949C7.81217 3.14374 9.91216 1.04199 12.4997 1.04199C15.0882 1.04199 17.1872 3.14205 17.1872 5.72949V6.25033H18.8679C20.2675 6.25033 21.4853 7.34733 21.6274 8.74169L22.9027 21.2561C23.0527 22.7276 21.9427 23.9587 20.4659 23.9587H4.53347C3.05356 23.9587 1.94629 22.7319 2.09669 21.2561L3.37204 8.74169C3.51373 7.35132 4.73438 6.25033 6.13153 6.25033H7.81217ZM7.81217 8.33366H6.13153C5.80255 8.33366 5.4779 8.62648 5.44464 8.95291L4.16929 21.4673C4.14398 21.7157 4.28805 21.8753 4.53347 21.8753H20.4659C20.7077 21.8753 20.855 21.7119 20.8301 21.4673L19.5548 8.95291C19.5211 8.62306 19.1999 8.33366 18.8679 8.33366H17.1872V10.417C17.1872 10.9923 16.7208 11.4587 16.1455 11.4587C15.5702 11.4587 15.1038 10.9923 15.1038 10.417V8.33366H9.8955V10.417C9.8955 10.9923 9.42913 11.4587 8.85383 11.4587C8.27854 11.4587 7.81217 10.9923 7.81217 10.417V8.33366ZM15.1038 6.25033V5.28879C15.1038 4.09458 13.9377 3.12533 12.4997 3.12533C11.0622 3.12533 9.8955 4.09536 9.8955 5.28879V6.25033H15.1038Z" fill="#A3A5AD"/>
</svg>
