<svg width="20" height="20" viewBox="0 0 20 20" fill="none" xmlns="http://www.w3.org/2000/svg">
<path d="M5.41732 9.08203V10.9154H14.584V9.08203H5.41732ZM10.0007 0.832031C4.94065 0.832031 0.833984 4.9387 0.833984 9.9987C0.833984 15.0587 4.94065 19.1654 10.0007 19.1654C15.0607 19.1654 19.1673 15.0587 19.1673 9.9987C19.1673 4.9387 15.0607 0.832031 10.0007 0.832031ZM10.0007 17.332C5.95815 17.332 2.66732 14.0412 2.66732 9.9987C2.66732 5.9562 5.95815 2.66536 10.0007 2.66536C14.0432 2.66536 17.334 5.9562 17.334 9.9987C17.334 14.0412 14.0432 17.332 10.0007 17.332Z" fill="black"/>
</svg>
