<svg width="16" height="18" viewBox="0 0 16 18" fill="none" xmlns="http://www.w3.org/2000/svg">
<path d="M1.45418 2.4561V15.5441C1.45418 16.4497 2.18403 17.1817 3.08473 17.1817H12.9144C13.808 17.1817 14.5449 16.4448 14.5449 15.5441V2.4561C14.5449 1.55048 13.8151 0.818514 12.9144 0.818514H3.08473C2.19107 0.818514 1.45418 1.5554 1.45418 2.4561ZM0.635742 2.4561C0.635742 1.09976 1.74316 0 3.08464 0H12.9143C14.2671 0 15.3632 1.09899 15.3632 2.4561V15.5441C15.3632 16.9004 14.2557 18.0002 12.9143 18.0002H3.08464C1.73183 18.0002 0.635742 16.9012 0.635742 15.5441V2.4561ZM11.8006 14.7271H4.33132L5.82124 11.2514L7.501 12.9319L9.55984 7.44334L11.8006 14.7271ZM7.18108 11.4547L6.3992 10.6728C6.07999 10.3536 5.56178 10.3536 5.24255 10.6728C5.16873 10.7466 5.10966 10.8331 5.06888 10.9287L3.57897 14.4049C3.40108 14.8204 3.59373 15.3014 4.00928 15.4793C4.11053 15.5229 4.22022 15.5454 4.33131 15.5454H11.8006C12.2527 15.5454 12.619 15.179 12.619 14.7269C12.619 14.6454 12.6071 14.5645 12.5825 14.4865L10.3417 7.20203C10.2088 6.77032 9.75104 6.52773 9.31861 6.66063C9.07672 6.73516 8.88267 6.91797 8.79337 7.15563L7.18108 11.4547ZM5.13574 5.72706C4.45793 5.72706 3.90879 5.17792 3.90879 4.50011C3.90879 3.8223 4.45793 3.27316 5.13574 3.27316C5.81355 3.27316 6.3634 3.8223 6.3634 4.50011C6.3634 5.17792 5.81355 5.72706 5.13574 5.72706ZM5.13574 6.5455C6.26566 6.5455 7.18108 5.63004 7.18108 4.50016C7.18108 3.37028 6.26562 2.45482 5.13574 2.45482C4.00653 2.45482 3.0904 3.37028 3.0904 4.50016C3.0904 5.63004 4.00657 6.5455 5.13574 6.5455Z" fill="#A3A5AD"/>
</svg>
