<svg width="21" height="24" viewBox="0 0 21 24" fill="none" xmlns="http://www.w3.org/2000/svg">
<path d="M17.4664 8.10837C17.5732 4.49802 14.733 1.48467 11.1226 1.37786C11.0582 1.37595 10.9937 1.375 10.9292 1.375H9.95808C6.37562 1.375 3.47146 4.27916 3.47146 7.86162C3.47146 7.94243 3.47297 8.02323 3.47599 8.10398L3.69931 14.0768C3.73684 15.0806 3.3893 16.0608 2.72783 16.8168L1.3057 18.4421C1.10113 18.6759 1.12482 19.0313 1.35862 19.2358C1.46116 19.3255 1.59278 19.375 1.72903 19.375H19.2705C19.5812 19.375 19.833 19.1232 19.833 18.8125C19.833 18.6763 19.7836 18.5446 19.6939 18.4421L18.2617 16.8054C17.6072 16.0574 17.2598 15.0895 17.2892 14.0961L17.4664 8.10837ZM19.1084 16.0645L20.5405 17.7013C20.8097 18.0089 20.958 18.4037 20.958 18.8125C20.958 19.7445 20.2025 20.5 19.2705 20.5H1.72903C1.32028 20.5 0.925417 20.3516 0.6178 20.0825C-0.0835863 19.4688 -0.15466 18.4027 0.459054 17.7013L1.88118 16.076C2.35366 15.536 2.6019 14.8359 2.57509 14.1189L2.35177 8.14602C2.34823 8.05126 2.34646 7.95645 2.34646 7.86162C2.34646 3.65784 5.7543 0.25 9.95808 0.25H10.9292C11.0048 0.25 11.0804 0.251118 11.1559 0.253352C15.3873 0.37853 18.716 3.91023 18.5909 8.14163L18.4137 14.1293C18.3927 14.839 18.6409 15.5303 19.1084 16.0645ZM7.40782 21.8547C7.28303 21.5702 7.41249 21.2384 7.69699 21.1136C7.98148 20.9888 8.31327 21.1183 8.43807 21.4028C8.79418 22.2146 9.59787 22.75 10.4998 22.75C11.399 22.75 12.2008 22.2178 12.5585 21.4096C12.6843 21.1255 13.0165 20.9971 13.3006 21.1229C13.5846 21.2486 13.713 21.5808 13.5873 21.8649C13.0509 23.0767 11.8483 23.875 10.4998 23.875C9.14729 23.875 7.94176 23.0719 7.40782 21.8547ZM3.18729 14.875H15.6988C16.4488 14.875 16.4488 16 15.6988 16H3.18729C2.43729 16 2.43729 14.875 3.18729 14.875Z" fill="#838092"/>
</svg>
