<svg width="22" height="23" viewBox="0 0 22 23" fill="none" xmlns="http://www.w3.org/2000/svg">
<g clip-path="url(#clip0_4296_4306)">
<path d="M7.03955 17.6973C7.03955 19.755 8.61538 21.4231 10.5593 21.4231C12.5032 21.4231 14.079 19.755 14.079 17.6973H12.3191C12.3191 18.7261 11.5312 19.5602 10.5593 19.5602C9.58733 19.5602 8.79941 18.7261 8.79941 17.6973H7.03955Z" fill="#57E5CB"/>
<path d="M9.67913 2.38301V0.931641H11.439V2.38302C15.1553 2.84393 18.0385 6.18811 18.0385 10.2462V14.393L19.8393 18.6292H1.27881L3.07966 14.393V10.2462C3.07966 6.18836 5.96263 2.84394 9.67913 2.38301ZM16.2786 14.7929V10.2462C16.2786 6.90185 13.7182 4.19172 10.5591 4.19172C7.39974 4.19172 4.83952 6.90207 4.83952 10.2462V14.7929L4.00058 16.7663H17.1175L16.2786 14.7929Z" fill="#00C5A1"/>
</g>
<defs>
<clipPath id="clip0_4296_4306">
<rect width="21.1183" height="22.3548" fill="white"/>
</clipPath>
</defs>
</svg>
