<svg width="14" height="14" viewBox="0 0 14 14" fill="none" xmlns="http://www.w3.org/2000/svg">
<path d="M13.7675 12.676L11.2552 10.182C13.2168 7.67053 13.0105 4.09369 10.7557 1.84019C9.56842 0.65369 7.98444 0 6.2985 0C4.61174 0 3.02852 0.653724 1.84134 1.84019C0.6541 3.02669 0 4.60968 0 6.29456C0 7.98026 0.654134 9.56249 1.84134 10.7489C3.02859 11.9354 4.61257 12.5891 6.2985 12.5891C7.69282 12.5891 9.06973 12.1249 10.1709 11.2474L12.6664 13.7763C12.821 13.9308 13.0106 14 13.217 14C13.4233 14 13.6129 13.914 13.7676 13.7763C14.0775 13.484 14.0775 12.9855 13.7676 12.6758L13.7675 12.676ZM11.0488 6.29456C11.0488 7.56706 10.55 8.75428 9.65448 9.64849C8.75968 10.5427 7.55499 11.0419 6.29845 11.0419C5.04192 11.0419 3.83719 10.5434 2.94242 9.64849C2.04761 8.75424 1.5481 7.5503 1.5481 6.29456C1.5481 5.02206 2.04692 3.83483 2.94242 2.94062C3.83722 2.04638 5.04192 1.54718 6.29845 1.54718C7.57175 1.54718 8.75971 2.04569 9.65448 2.94062C10.5493 3.83554 11.0488 5.02213 11.0488 6.29456Z" fill="#1D1F22"/>
</svg>
